<svg width="200" height="84" viewBox="0 0 200 84" fill="none" xmlns="http://www.w3.org/2000/svg">
<g filter="url(#filter0_d_115_5)">
<path d="M70.0653 19.5455V37H67.2528L59.0284 25.1108H58.8835V37H55.7216V19.5455H58.5511L66.767 31.4432H66.9205V19.5455H70.0653ZM73.5107 37V19.5455H76.6726V34.3494H84.3601V37H73.5107ZM90.1214 37L85.1953 19.5455H88.5959L91.7408 32.3722H91.9027L95.2607 19.5455H98.3544L101.721 32.3807H101.874L105.019 19.5455H108.42L103.494 37H100.374L96.88 24.7528H96.7436L93.2408 37H90.1214ZM119.727 19.5455V37H116.565V19.5455H119.727ZM125.393 37H122.018L128.163 19.5455H132.066L138.219 37H134.844L130.183 23.125H130.046L125.393 37ZM125.504 30.1562H134.708V32.696H125.504V30.1562Z" fill="#F9FAFB"/>
</g>
<path d="M39.7216 40.5455H43.5909L48.7727 53.1932H48.9773L54.1591 40.5455H58.0284V58H54.9943V46.0085H54.8324L50.0085 57.9489H47.7415L42.9176 45.983H42.7557V58H39.7216V40.5455ZM63.7131 58H60.3381L66.483 40.5455H70.3864L76.5398 58H73.1648L68.5028 44.125H68.3665L63.7131 58ZM63.8239 51.1562H73.0284V53.696H63.8239V51.1562ZM88.0433 45.3438C87.9638 44.5994 87.6286 44.0199 87.0376 43.6051C86.4524 43.1903 85.6911 42.983 84.7536 42.983C84.0945 42.983 83.5291 43.0824 83.0575 43.2812C82.5859 43.4801 82.2251 43.75 81.9751 44.0909C81.7251 44.4318 81.5973 44.821 81.5916 45.2585C81.5916 45.6222 81.674 45.9375 81.8388 46.2045C82.0092 46.4716 82.2393 46.6989 82.5291 46.8864C82.8189 47.0682 83.1399 47.2216 83.4922 47.3466C83.8445 47.4716 84.1996 47.5767 84.5575 47.6619L86.1939 48.071C86.853 48.2244 87.4865 48.4318 88.0945 48.6932C88.7081 48.9545 89.2564 49.2841 89.7393 49.6818C90.228 50.0795 90.6143 50.5597 90.8984 51.1222C91.1825 51.6847 91.3246 52.3437 91.3246 53.0994C91.3246 54.1222 91.0632 55.0227 90.5405 55.8011C90.0178 56.5739 89.2621 57.179 88.2734 57.6165C87.2905 58.0483 86.1001 58.2642 84.7024 58.2642C83.3445 58.2642 82.1655 58.054 81.1655 57.6335C80.1712 57.2131 79.3928 56.5994 78.8303 55.7926C78.2734 54.9858 77.9723 54.0028 77.9268 52.8438H81.0376C81.0831 53.4517 81.2706 53.9574 81.6001 54.3608C81.9297 54.7642 82.3587 55.0653 82.8871 55.2642C83.4212 55.4631 84.0178 55.5625 84.6768 55.5625C85.3643 55.5625 85.9666 55.4602 86.4837 55.2557C87.0064 55.0455 87.4155 54.7557 87.7109 54.3864C88.0064 54.0114 88.157 53.5739 88.1626 53.0739C88.157 52.6193 88.0234 52.2443 87.7621 51.9489C87.5007 51.6477 87.1342 51.3977 86.6626 51.1989C86.1967 50.9943 85.6513 50.8125 85.0263 50.6534L83.0405 50.142C81.603 49.7727 80.4666 49.2131 79.6314 48.4631C78.8018 47.7074 78.3871 46.7045 78.3871 45.4545C78.3871 44.4261 78.6655 43.5256 79.2223 42.7528C79.7848 41.9801 80.549 41.3807 81.5149 40.9545C82.4808 40.5227 83.5746 40.3068 84.7962 40.3068C86.0348 40.3068 87.12 40.5227 88.0518 40.9545C88.9893 41.3807 89.7251 41.9744 90.2592 42.7358C90.7933 43.4915 91.0689 44.3608 91.0859 45.3438H88.0433ZM93.3764 43.196V40.5455H107.303V43.196H101.908V58H98.7713V43.196H93.3764ZM109.987 58V40.5455H121.339V43.196H113.149V47.9347H120.751V50.5852H113.149V55.3494H121.408V58H109.987ZM124.565 58V40.5455H131.111C132.452 40.5455 133.577 40.7784 134.486 41.2443C135.401 41.7102 136.091 42.3636 136.557 43.2045C137.028 44.0398 137.264 45.0142 137.264 46.1278C137.264 47.2472 137.026 48.2187 136.548 49.0426C136.077 49.8608 135.381 50.4943 134.46 50.9432C133.54 51.3864 132.409 51.608 131.068 51.608H126.406V48.983H130.642C131.426 48.983 132.068 48.875 132.568 48.6591C133.068 48.4375 133.438 48.1165 133.676 47.696C133.92 47.2699 134.043 46.7472 134.043 46.1278C134.043 45.5085 133.92 44.9801 133.676 44.5426C133.432 44.0994 133.06 43.7642 132.56 43.5369C132.06 43.304 131.415 43.1875 130.625 43.1875H127.727V58H124.565ZM133.582 50.0909L137.903 58H134.375L130.131 50.0909H133.582ZM138.302 40.5455H141.873L146.143 48.267H146.313L150.583 40.5455H154.154L147.805 51.4886V58H144.651V51.4886L138.302 40.5455Z" fill="#65A30D"/>
<defs>
<filter id="filter0_d_115_5" x="51.7216" y="17.5455" width="90.4979" height="25.4545" filterUnits="userSpaceOnUse" color-interpolation-filters="sRGB">
<feFlood flood-opacity="0" result="BackgroundImageFix"/>
<feColorMatrix in="SourceAlpha" type="matrix" values="0 0 0 0 0 0 0 0 0 0 0 0 0 0 0 0 0 0 127 0" result="hardAlpha"/>
<feOffset dy="2"/>
<feGaussianBlur stdDeviation="2"/>
<feComposite in2="hardAlpha" operator="out"/>
<feColorMatrix type="matrix" values="0 0 0 0 0 0 0 0 0 0 0 0 0 0 0 0 0 0 0.9 0"/>
<feBlend mode="normal" in2="BackgroundImageFix" result="effect1_dropShadow_115_5"/>
<feBlend mode="normal" in="SourceGraphic" in2="effect1_dropShadow_115_5" result="shape"/>
</filter>
</defs>
</svg>
